<svg xmlns="http://www.w3.org/2000/svg" width="28.013" height="28" viewBox="0 0 28.013 28"><defs><style>.a{fill:#aaa;}.b{fill:#a8a8a8;}</style></defs><g transform="translate(0 0)"><path class="a" d="M750.052,150.41c-.5-1.306-.943-2.5-1.432-3.668a.752.752,0,0,0-.57-.322c-.86-.036-1.722-.007-2.583-.019a1.507,1.507,0,0,1-1.671-1.485,1.549,1.549,0,0,1,1.609-1.643c1.022-.037,2.046-.008,3-.008l1.673-3.947c-.588-.579-1.253-1.228-1.912-1.883a1.643,1.643,0,0,1-.214-2.413,1.62,1.62,0,0,1,2.407.213c.626.625,1.237,1.263,1.857,1.894.03.031.079.044-.039-.019,1.3-.5,2.486-.929,3.652-1.419a.829.829,0,0,0,.361-.621c.044-.789.011-1.582.021-2.373.014-1.172.64-1.9,1.589-1.877a1.7,1.7,0,0,1,1.546,1.884c.005.791.017,1.583-.006,2.374-.011.379.1.543.486.686,1.017.373,1.993.86,3,1.258a.788.788,0,0,0,.68-.1c.62-.562,1.183-1.186,1.785-1.769a1.559,1.559,0,0,1,2.3-.137,1.594,1.594,0,0,1-.115,2.349c-.571.581-1.174,1.132-1.725,1.73a.746.746,0,0,0-.163.634c.475,1.149,1,2.278,1.561,3.537.8,0,1.777-.045,2.747.02a3,3,0,0,1,1.35.439,1.279,1.279,0,0,1,.506,1.486,1.4,1.4,0,0,1-1.27,1.133c-.926.067-1.859.073-2.788.054-.5-.01-.7.137-.852.651a19.266,19.266,0,0,1-1.143,2.748c-.172.353-.2.553.1.831.594.556,1.16,1.144,1.723,1.732a1.554,1.554,0,1,1-2.2,2.153c-.675-.672-1.306-1.387-1.854-1.974-1.4.52-2.612.957-3.808,1.437a.689.689,0,0,0-.285.529c-.03.907,0,1.815-.021,2.723a1.578,1.578,0,0,1-1.656,1.6,1.512,1.512,0,0,1-1.436-1.581c-.02-.907-.028-1.816,0-2.723.012-.388-.174-.5-.49-.618-1.013-.383-2-.821-3.02-1.2a.813.813,0,0,0-.689.1c-.627.554-1.2,1.172-1.8,1.748a1.606,1.606,0,0,1-2.361.066,1.582,1.582,0,0,1,.186-2.251c.661-.687,1.334-1.363,2-2.045C750.1,150.3,750.1,150.273,750.052,150.41Zm13.925-5.52a6.177,6.177,0,0,0-6.137-6.262,6.214,6.214,0,1,0,6.137,6.262Z" transform="translate(-743.795 -130.82)"/><path class="b" d="M815.072,202.031q0,2.025,0,4.051c0,.348-.017.73-.505.607-1.68-.422-3.721-1.609-4.1-3.807a4.554,4.554,0,0,1,2.871-5.159c1.6-.738,1.731-.658,1.731,1.1Q815.072,200.424,815.072,202.031Z" transform="translate(-801.083 -187.995)"/></g></svg>