<svg xmlns="http://www.w3.org/2000/svg" width="22.094" height="16" viewBox="0 0 22.094 16"><defs><style>.a{fill:#74d504;}</style></defs><path class="a" d="M926.7,1250.575c.885-.885,1.736-1.728,2.578-2.579q3.556-3.6,7.106-7.2a2.109,2.109,0,0,1,3.189-.152,2.149,2.149,0,0,1,.041,3.257q-5.58,5.662-11.2,11.287a2.215,2.215,0,0,1-3.327.087q-3.1-2.989-6.156-6.015a1.976,1.976,0,0,1-.3-2.678,2.277,2.277,0,0,1,2.746-.939,3.131,3.131,0,0,1,.836.62c1.247,1.2,2.479,2.414,3.719,3.621C926.17,1250.107,926.416,1250.317,926.7,1250.575Z" transform="translate(-918.246 -1239.984)"/></svg>