<svg xmlns="http://www.w3.org/2000/svg" width="28.964" height="32.189" viewBox="0 0 28.964 32.189"><defs><style>.a{fill:#fff;}</style></defs><g transform="translate(-1723.374 -439.8)"><path class="a" d="M1726.59,507.94c-.63,0-1.212.031-1.79-.008a1.584,1.584,0,0,1-.589-2.972,2.318,2.318,0,0,1,.961-.216q7.951-.021,15.9-.013,4.774,0,9.548.006a1.651,1.651,0,0,1,1.647,1.143,1.55,1.55,0,0,1-.643,1.789,2.654,2.654,0,0,1-1.014.282,8.89,8.89,0,0,1-1.225.009c-.2,0-.3.066-.279.279.011.11,0,.223,0,.334,0,6.3.008,12.607-.012,18.911a4.757,4.757,0,0,1-4.021,4.526,5.041,5.041,0,0,1-.7.071c-4.347,0-8.694.031-13.041-.008a4.777,4.777,0,0,1-4.743-4.737c0-.161,0-.322,0-.483q0-9.177,0-18.354Zm3.224.07v.341q0,9.343,0,18.687a1.639,1.639,0,0,0,1.866,1.837c4.124,0,8.248-.021,12.371.014a1.766,1.766,0,0,0,1.864-1.867c-.022-6.2-.011-12.408-.011-18.612v-.4Z" transform="translate(0 -60.106)"/><path class="a" d="M1858.034,443.037c-1.04,0-2.081.011-3.121,0a1.6,1.6,0,0,1-1.588-1.16,1.551,1.551,0,0,1,.664-1.78,1.979,1.979,0,0,1,.94-.276c2.1-.024,4.21-.018,6.316-.01a1.614,1.614,0,1,1,.022,3.226C1860.189,443.051,1859.111,443.037,1858.034,443.037Z" transform="translate(-120.231 0)"/><path class="a" d="M1942.95,597.833c0,1.571,0,3.143,0,4.714a1.621,1.621,0,1,1-3.232,0q-.006-3.359,0-6.718c0-.916-.008-1.831,0-2.747a1.6,1.6,0,0,1,1.155-1.591,1.522,1.522,0,0,1,1.779.65,2.25,2.25,0,0,1,.285,1.047C1942.967,594.74,1942.95,596.287,1942.95,597.833Z" transform="translate(-200.259 -140.355)"/><path class="a" d="M1853.4,598.037c0-1.585,0-3.17,0-4.755a1.6,1.6,0,1,1,3.2-.016q.005,4.811,0,9.622a1.6,1.6,0,0,1-3.153.383,2.331,2.331,0,0,1-.046-.552Q1853.4,600.378,1853.4,598.037Z" transform="translate(-120.365 -140.539)"/></g></svg>