<svg xmlns="http://www.w3.org/2000/svg" width="28.045" height="28" viewBox="0 0 28.045 28"><defs><style>.a{fill:#a8a8a8;}</style></defs><path class="a" d="M158.363,498.309c0,1.861.015,3.686-.005,5.51a2.669,2.669,0,0,1-2.1,2.708,3.7,3.7,0,0,1-.932.094q-6.049.009-12.1,0a2.794,2.794,0,0,1-3.083-3.025q-.039-6.049,0-12.1a2.808,2.808,0,0,1,3.116-3.058c1.512-.005,3.025,0,4.537,0h.73a9.82,9.82,0,0,1,4.277-8.062,9.355,9.355,0,0,1,6.312-1.711A9.753,9.753,0,0,1,168.159,488,9.973,9.973,0,0,1,158.363,498.309Zm-15.376,5.476h12.561V491.278H142.987Zm15.373-8.424c2.349.279,5.245-1.527,6.325-3.886a6.857,6.857,0,0,0-1.733-8.345,7.066,7.066,0,0,0-8.109-.749c-2.209,1.284-3.8,4.111-3.373,6.01a.434.434,0,0,0,.117.036c1.008.005,2.017,0,3.025.013a8.987,8.987,0,0,1,1.508.052,2.729,2.729,0,0,1,2.233,2.672C158.379,492.567,158.359,493.969,158.359,495.362Z" transform="translate(-140.124 -478.626)"/></svg>