<svg xmlns="http://www.w3.org/2000/svg" width="24.007" height="24" viewBox="0 0 24.007 24">
  <g id="Group_299" data-name="Group 299" transform="translate(1677.359 -4324.717)">
    <path id="Path_303" data-name="Path 303" d="M-1665.345,4510.417c3.377,0,6.754,0,10.132,0a1.683,1.683,0,0,1,1.666.97,2.025,2.025,0,0,1,.186.843q.017,5.886.007,11.771a1.755,1.755,0,0,1-1.846,1.838q-10.155,0-20.309,0a1.752,1.752,0,0,1-1.843-1.861c0-3.908.009-7.816-.006-11.724a1.788,1.788,0,0,1,1.837-1.84C-1672.13,4510.431-1668.737,4510.417-1665.345,4510.417Zm9.4,12.83v-10.262h-16.247v10.262Zm-17.995-5.98h-1.686v1.686h1.686Z" transform="translate(0 -177.119)" fill="#2699fb"/>
    <path id="Path_304" data-name="Path 304" d="M-1674.646,4330.71h-2.584v-.251q0-1.95,0-3.9a1.744,1.744,0,0,1,1.836-1.84h11.772a1.718,1.718,0,0,1,1.808,1.79c0,1.392,0,2.784,0,4.193h-2.555v-3.384h-10.278Z" transform="translate(-0.123 0)" fill="#2699fb"/>
    <path id="Path_305" data-name="Path 305" d="M-1301.987,4349.018l-2.128-2.575h1.7v-1.708h-3.4v-.833h4.262v2.525h1.736Z" transform="translate(-354.388 -18.299)" fill="#2699fb"/>
  </g>
</svg>
