<svg xmlns="http://www.w3.org/2000/svg" width="31.638" height="14.026" viewBox="0 0 31.638 14.026"><defs><style>.a{fill:#fff;}</style></defs><path class="a" d="M310.238,1297.146v-8.236a1.62,1.62,0,0,0-2.767-1.145l-1.885,1.889c-4.8-4.346-10.283-5.885-16.443-3.949a15.445,15.445,0,0,0-10.413,10.146,2.3,2.3,0,0,0,1.788,3.016l.046.008a2.292,2.292,0,0,0,2.545-1.483,11.545,11.545,0,0,1,19.063-4.458l-3.023,3a1.62,1.62,0,0,0,1.121,2.771c2.505.029,5.774.056,8.343.064A1.62,1.62,0,0,0,310.238,1297.146Z" transform="translate(-278.6 -1284.882)"/></svg>