<svg xmlns="http://www.w3.org/2000/svg" width="51" height="51" viewBox="0 0 51 51"><defs><style>.a{fill:#ababab;}.b{fill:#afafaf;}.c{fill:#d3d3d3;}</style></defs><g transform="translate(-3708 -3762)"><rect class="a" width="51" height="51" transform="translate(3708 3762)"/><rect class="b" width="12.424" height="12.921" transform="translate(3708.558 3762.673)"/><rect class="c" width="12.424" height="12.921" transform="translate(3708.558 3774.834)"/><rect class="b" width="12.424" height="12.921" transform="translate(3708.558 3786.995)"/><rect class="c" width="12.424" height="12.921" transform="translate(3708.558 3799.156)"/><rect class="b" width="12.424" height="12.921" transform="translate(3733.406 3762.673)"/><rect class="c" width="12.424" height="12.921" transform="translate(3733.406 3774.834)"/><rect class="b" width="12.424" height="12.921" transform="translate(3733.406 3786.995)"/><rect class="c" width="12.424" height="12.921" transform="translate(3733.406 3799.156)"/><rect class="c" width="12.424" height="12.921" transform="translate(3720.982 3762.673)"/><rect class="b" width="12.424" height="12.921" transform="translate(3720.982 3774.834)"/><rect class="c" width="12.424" height="12.921" transform="translate(3720.982 3786.995)"/><rect class="b" width="12.424" height="12.921" transform="translate(3720.982 3799.156)"/><rect class="c" width="12.424" height="12.921" transform="translate(3745.83 3762.673)"/><rect class="b" width="12.424" height="12.921" transform="translate(3745.83 3774.834)"/><rect class="c" width="12.424" height="12.921" transform="translate(3745.83 3786.995)"/><rect class="b" width="12.424" height="12.921" transform="translate(3745.83 3799.156)"/></g></svg>