<svg xmlns="http://www.w3.org/2000/svg" width="28.166" height="28" viewBox="0 0 28.166 28"><defs><style>.a{fill:#2699fb;}</style></defs><g transform="translate(0)"><path class="a" d="M142.02,849.327h9.19v-9.078h-.8q-8.042,0-16.085,0c-1.027,0-1.673-.478-1.77-1.284a1.48,1.48,0,0,1,1.524-1.719c1.334-.026,2.67-.034,4,0,.55.015.742-.134.726-.682-.035-1.249-.029-2.5,0-3.749a1.5,1.5,0,0,1,1.159-1.592,1.453,1.453,0,0,1,1.658.591,2.4,2.4,0,0,1,.341,1.215c.041,1.378.015,2.758.015,4.205h.83q5.2,0,10.4,0c1.018,0,1.243.21,1.244,1.189,0,3.385.016,6.771-.011,10.156,0,.613.153.835.82.807,1.238-.053,2.481-.021,3.722-.013,1.051.007,1.712.579,1.728,1.472a1.546,1.546,0,0,1-1.721,1.57c-1.428.021-2.856.007-4.284.007q-6.883,0-13.767,0c-1.584,0-2.048-.455-2.049-1.989q0-3.817,0-7.635c0-.839.216-1.039,1.072-1.048,2.04-.022,2.062-.112,2.036,1.965-.021,1.636-.005,3.272,0,4.908C141.988,848.844,142.007,849.065,142.02,849.327Z" transform="translate(-132.538 -831.163)"/><path class="a" d="M269.195,1000.052c0,.569.02,1.139-.011,1.706-.013.245-.1.679-.207.7a10.431,10.431,0,0,1-2.543.239c-.632-.055-.7-.722-.688-1.3.015-.956.029-1.914,0-2.87-.024-.68.277-.938.925-.914.542.02,1.087.026,1.628,0,.647-.032.969.193.909.892C269.16,999.015,269.2,999.535,269.195,1000.052Z" transform="translate(-247.275 -974.711)"/></g></svg>