<svg xmlns="http://www.w3.org/2000/svg" width="23.557" height="23.533" viewBox="0 0 23.557 23.533"><defs><style>.a{fill:#2699fb;}</style></defs><path class="a" d="M611.525,1240.277c-1-1.1-2.072-2.159-3.174-3.233a3.642,3.642,0,0,0-1.239-.8,3.47,3.47,0,0,0-3.911.9l-5.645,5.643q-4.144,4.143-8.29,8.286a1.687,1.687,0,0,0-.512,1.237q0,1.632,0,3.264,0,1.194,0,2.388a1.9,1.9,0,0,0,.1.6,1.47,1.47,0,0,0,1.53.949h5.572a1.5,1.5,0,0,0,1.047-.424l3.237-3.131q5.363-5.365,10.723-10.734a7.728,7.728,0,0,0,.595-.65A3.394,3.394,0,0,0,611.525,1240.277Zm-6.106,6.292-2.035,2.036q-3.959,3.959-7.915,7.922l-.023.022h-.029c-.664,0-1.336-.006-2-.006h-1.671v-.264c0-1.134,0-2.307.006-3.459,3.168-3.183,6.394-6.412,9.514-9.536l.435-.436Zm3.678-3.685c-.466.469-.935.936-1.4,1.4l-.124.124-3.726-3.687.132-.132q.7-.7,1.4-1.4a.569.569,0,0,1,.869-.033c1.046,1.01,1.99,1.949,2.887,2.872C609.236,1242.127,609.539,1242.439,609.1,1242.885Z" transform="translate(-588.754 -1235.98)"/></svg>