<svg xmlns="http://www.w3.org/2000/svg" width="12.736" height="12.736" viewBox="0 0 12.736 12.736"><defs><style>.a{fill:#707070;}</style></defs><path class="a" d="M1.262,8.285A1.592,1.592,0,0,0,.8,9.41v1.132L0,11.935l.8.8,1.393-.8H3.321a1.592,1.592,0,0,0,1.126-.466L7.6,8.319,4.412,5.135ZM12.036.695a2.387,2.387,0,0,0-3.377,0L6.742,2.612l-.326-.326a.6.6,0,0,0-.844,0L4.553,3.305a.6.6,0,0,0,0,.844L8.581,8.178a.6.6,0,0,0,.844,0l1.019-1.019a.6.6,0,0,0,0-.844l-.326-.326,1.918-1.918a2.387,2.387,0,0,0,0-3.377Z" transform="translate(0 0.005)"/></svg>