<svg xmlns="http://www.w3.org/2000/svg" width="20.233" height="23.954" viewBox="0 0 20.233 23.954"><defs><style>.a{fill:#707070;}</style></defs><path class="a" d="M820.026,834.731a20,20,0,0,1-1.546-1.35,1.275,1.275,0,0,1-.138-1.588,1.236,1.236,0,0,1,1.459-.578,1.449,1.449,0,0,1,.608.36c1.259,1.233,2.515,2.469,3.75,3.727a1.354,1.354,0,0,1,.027,2.06q-1.824,1.915-3.7,3.774a1.319,1.319,0,0,1-1.981.03,1.389,1.389,0,0,1,.118-1.973c.431-.447.915-.841,1.376-1.259l-.116-.174c-.148-.011-.3-.031-.444-.031q-2.715,0-5.431,0a6.765,6.765,0,0,0-6.742,5.437,8.229,8.229,0,0,0-.145,1.7c-.018,1.817,0,3.634-.009,5.45,0,.844-.2,1.03-1.036,1.058-1.556.051-1.654-.044-1.654-1.6,0-1.756-.007-3.511,0-5.267a9.321,9.321,0,0,1,8.6-9.386c2.043-.14,4.1-.08,6.149-.111.215,0,.431,0,.646,0Z" transform="translate(-804.416 -831.163)"/><path class="a" d="M871.314,935.028c0-1.564,0-3.127,0-4.691,0-.675.188-.865.855-.866q4.719,0,9.437,0c.663,0,.894.232.895.911q.005,4.691,0,9.381c0,.679-.22.9-.9.9q-4.691,0-9.381,0c-.7,0-.9-.2-.9-.889C871.311,938.192,871.314,936.61,871.314,935.028Zm8.619,3.1v-6.156h-6.112v6.156Z" transform="translate(-862.342 -916.711)"/></svg>