<svg xmlns="http://www.w3.org/2000/svg" width="24.003" height="24" viewBox="0 0 24.003 24"><defs><style>.a{fill:#fff;}</style></defs><g transform="translate(-1229.955 -643.971)"><path class="a" d="M1229.956,655.981c0-3.245-.005-6.49.007-9.735a3.321,3.321,0,0,1,.166-1.136,1.688,1.688,0,0,1,1.7-1.114c1.53-.016,3.06-.011,4.59,0,.536,0,.714.2.716.742,0,1.816,0,3.632,0,5.447,0,.813.157.964.973.964h7.768c.717,0,.888-.161.892-.89.008-1.782,0-3.564,0-5.347,0-.773.149-.876.906-.929a2.88,2.88,0,0,1,2.5,1.012c.949,1.042,1.974,2.018,2.991,3a2.473,2.473,0,0,1,.792,1.884q-.008,7.944,0,15.888a1.914,1.914,0,0,1-1.061,2,2.776,2.776,0,0,1-1.075.2q-9.861.017-19.722.005a1.9,1.9,0,0,1-2.139-2.15Q1229.949,660.9,1229.956,655.981Zm11.983,7.767a4.181,4.181,0,1,0-4.185-4.212A4.176,4.176,0,0,0,1241.939,663.749Z" transform="translate(0)"/><path class="a" d="M1351.516,646.79c0,.584.011,1.169,0,1.753-.017.65-.3.932-.934.954-1.937.067-1.809-.2-1.8-1.714.008-.924-.006-1.848,0-2.771.008-.692.236-.914.914-.932,1.768-.049,1.815,0,1.815,1.749Q1351.516,646.31,1351.516,646.79Z" transform="translate(-107.002 -0.087)"/></g></svg>