<svg xmlns="http://www.w3.org/2000/svg" width="27.583" height="27.569" viewBox="0 0 27.583 27.569"><defs><style>.a{fill:#2699fb;}</style></defs><g transform="translate(0)"><path class="a" d="M749.955,150.109c-.495-1.286-.929-2.459-1.41-3.612a.741.741,0,0,0-.561-.317c-.847-.035-1.7-.007-2.543-.019A1.484,1.484,0,0,1,743.8,144.7a1.526,1.526,0,0,1,1.585-1.618c1.006-.036,2.014-.008,2.952-.008l1.647-3.886c-.579-.57-1.234-1.209-1.882-1.854a1.618,1.618,0,0,1-.21-2.376,1.6,1.6,0,0,1,2.37.209c.616.615,1.218,1.244,1.828,1.865.03.031.078.043-.039-.018,1.275-.488,2.447-.915,3.6-1.4A.817.817,0,0,0,756,135c.043-.777.011-1.558.02-2.337.014-1.154.63-1.875,1.565-1.848a1.676,1.676,0,0,1,1.523,1.855c0,.779.017,1.559-.006,2.338-.011.373.094.535.478.676,1,.367,1.962.847,2.956,1.239a.775.775,0,0,0,.669-.1c.611-.553,1.165-1.168,1.757-1.741a1.535,1.535,0,0,1,2.261-.135,1.57,1.57,0,0,1-.113,2.313c-.562.572-1.156,1.114-1.7,1.7a.735.735,0,0,0-.16.624c.468,1.131.983,2.243,1.537,3.482.788,0,1.75-.045,2.7.02a2.956,2.956,0,0,1,1.329.432,1.259,1.259,0,0,1,.5,1.463,1.377,1.377,0,0,1-1.25,1.115c-.912.066-1.831.071-2.745.054-.491-.01-.684.135-.839.641a18.974,18.974,0,0,1-1.126,2.706c-.169.348-.193.545.1.818.585.548,1.142,1.127,1.7,1.706a1.53,1.53,0,1,1-2.164,2.12c-.665-.662-1.286-1.366-1.826-1.944-1.376.512-2.571.942-3.75,1.415a.678.678,0,0,0-.28.52c-.03.893,0,1.788-.02,2.681a1.554,1.554,0,0,1-1.631,1.572,1.489,1.489,0,0,1-1.414-1.557c-.019-.893-.027-1.788,0-2.681.012-.382-.172-.491-.483-.609-1-.377-1.973-.809-2.973-1.177a.8.8,0,0,0-.679.095c-.617.545-1.178,1.154-1.777,1.721a1.582,1.582,0,0,1-2.325.065,1.558,1.558,0,0,1,.183-2.216c.651-.677,1.313-1.342,1.969-2.014C750,150,750,149.974,749.955,150.109Zm13.711-5.435a6.082,6.082,0,0,0-6.042-6.166,6.119,6.119,0,1,0,6.042,6.166Z" transform="translate(-743.795 -130.82)"/></g></svg>