<svg xmlns="http://www.w3.org/2000/svg" width="28.013" height="28" viewBox="0 0 28.013 28"><defs><style>.a{fill:#2699fb;}.b,.c{stroke:none;}.c{fill:#aaa;}</style></defs><g class="a" transform="translate(-743.795 -130.82)"><path class="b" d="M 757.778076171875 157.3164367675781 C 757.7698974609375 157.2929992675781 757.76171875 157.2569732666016 757.7605590820313 157.2055206298828 C 757.7371215820313 156.1310119628906 757.7372436523438 155.3157501220703 757.7608032226563 154.5623016357422 C 757.7818603515625 153.8780517578125 757.5458374023438 152.9645385742188 756.301513671875 152.4942321777344 C 756.0040893554688 152.3818206787109 755.7103271484375 152.26513671875 755.410400390625 152.1439666748047 C 756.2250366210938 152.4089202880859 757.0925903320313 152.5484161376953 757.98828125 152.5522918701172 L 758.0170288085938 152.5523529052734 C 758.6099853515625 152.5523529052734 759.1926879882813 152.4719696044922 759.7544555664063 152.3214874267578 C 759.5352783203125 152.4064636230469 759.3173828125 152.4921875 759.100341796875 152.5791931152344 C 758.2897338867188 152.9043426513672 757.8967895507813 153.7771606445313 757.87451171875 154.4506072998047 C 757.8562622070313 154.9965209960938 757.8573608398438 155.5392608642578 757.8583984375 156.0641479492188 C 757.8591918945313 156.4550323486328 757.8599243164063 156.8242340087891 757.8533935546875 157.1967620849609 C 757.85205078125 157.2722930908203 757.8514404296875 157.3066253662109 757.778076171875 157.3164367675781 Z M 749.0269775390625 153.5890808105469 C 749.0481567382813 153.5437622070313 749.0892944335938 153.4776153564453 749.1635131835938 153.4004364013672 C 749.5883178710938 152.95849609375 750.0281982421875 152.5111541748047 750.4536743164063 152.0785217285156 C 750.6714477539063 151.8570404052734 750.8892822265625 151.6355743408203 751.1064453125 151.4134826660156 L 751.779541015625 150.7251129150391 L 751.6864624023438 150.4829711914063 L 751.81005859375 150.2439727783203 L 751.3721923828125 149.5229644775391 L 751.2255249023438 149.2819519042969 C 751.18115234375 149.1657409667969 751.1371459960938 149.0503692626953 751.0934448242188 148.9357604980469 C 750.9888305664063 148.6615142822266 750.8859252929688 148.3916320800781 750.7833862304688 148.1248474121094 C 751.1456298828125 148.8838195800781 751.6354370117188 149.5832977294922 752.241943359375 150.1962738037109 C 752.8599853515625 150.8208465576172 753.571533203125 151.3302307128906 754.3501586914063 151.7135162353516 C 753.9955444335938 151.5708770751953 753.6345825195313 151.4289245605469 753.2695922851563 151.2945404052734 C 753.0366821289063 151.2089538574219 752.78271484375 151.1656646728516 752.5140380859375 151.1656646728516 C 752.1892700195313 151.1656646728516 751.569580078125 151.2317352294922 751.0689086914063 151.6741943359375 C 750.6571655273438 152.0376434326172 750.2778930664063 152.4168853759766 749.9110107421875 152.7836456298828 C 749.6756591796875 153.0190124511719 749.4533081054688 153.2413177490234 749.225830078125 153.4567108154297 C 749.1397705078125 153.5382080078125 749.06884765625 153.5747680664063 749.0269775390625 153.5890808105469 Z M 766.5755615234375 153.5871734619141 C 766.5297241210938 153.5682373046875 766.4612426757813 153.5273742675781 766.3795166015625 153.4460144042969 C 765.927734375 152.9962921142578 765.49560546875 152.5249328613281 765.0776977539063 152.0690612792969 C 764.8984985351563 151.8735809326172 764.729248046875 151.6889343261719 764.5628662109375 151.5108795166016 L 763.8804321289063 150.7804718017578 L 762.943603515625 151.1291046142578 C 762.6107788085938 151.2529907226563 762.288330078125 151.3721313476563 761.9740600585938 151.4882507324219 C 761.6737060546875 151.5992279052734 761.3782958984375 151.7083740234375 761.0869140625 151.8168487548828 C 763.6146850585938 150.5644836425781 765.4620361328125 147.8637542724609 765.476318359375 144.8979034423828 C 765.4812622070313 143.8592987060547 765.2816772460938 142.8665924072266 764.916015625 141.9591369628906 C 765.0632934570313 142.2894744873047 765.2137451171875 142.6231231689453 765.3673706054688 142.9637603759766 C 765.5014038085938 143.2610168457031 765.6380004882813 143.5639495849609 765.7770385742188 143.8748474121094 L 766.1740112304688 144.7624816894531 L 767.1463623046875 144.7624816894531 C 767.3809204101563 144.7624816894531 767.6214599609375 144.7588806152344 767.8760986328125 144.7550964355469 C 768.1396484375 144.7511596679688 768.4122314453125 144.7471008300781 768.686767578125 144.7471008300781 C 769.1183471679688 144.7471008300781 769.4696655273438 144.7572174072266 769.7922973632813 144.7789306640625 C 769.9095458984375 144.7868194580078 770.038818359375 144.8150939941406 770.161376953125 144.857666015625 C 769.6631469726563 144.8882904052734 769.13232421875 144.9030914306641 768.5433959960938 144.9030914306641 C 768.2841186523438 144.9030914306641 768.0149536132813 144.9002990722656 767.720458984375 144.8945465087891 C 767.6953125 144.8940582275391 767.6707153320313 144.8938140869141 767.646728515625 144.8938140869141 C 766.86328125 144.8938140869141 765.8383178710938 145.1907196044922 765.4046630859375 146.6051635742188 C 765.1605834960938 147.4019165039063 764.8050537109375 148.1934204101563 764.3463134765625 149.1368103027344 C 763.7431640625 150.3773498535156 764.2438354492188 151.2253112792969 764.7700805664063 151.7182312011719 C 765.3150024414063 152.2285766601563 765.8253784179688 152.7564544677734 766.4359130859375 153.3935089111328 C 766.5076904296875 153.4683837890625 766.5507202148438 153.5356750488281 766.5755615234375 153.5871734619141 Z M 750.380126953125 147.090087890625 C 750.2570190429688 146.780029296875 750.1322631835938 146.4721374511719 750.0037231445313 146.1642761230469 C 749.6793823242188 145.3871002197266 748.8067626953125 144.9508209228516 748.1124877929688 144.9216613769531 C 747.6835327148438 144.9039001464844 747.266845703125 144.9016265869141 746.9517211914063 144.9016265869141 C 746.7854614257813 144.9016265869141 746.619140625 144.90234375 746.4528198242188 144.903076171875 C 746.2908325195313 144.9037933349609 746.12890625 144.9044952392578 745.9669799804688 144.9044952392578 C 745.966064453125 144.9044952392578 745.965087890625 144.9044952392578 745.964111328125 144.9044952392578 C 745.7847290039063 144.9044952392578 745.6284790039063 144.903564453125 745.4865112304688 144.9016571044922 C 745.3985595703125 144.9004821777344 745.33544921875 144.89013671875 745.2954711914063 144.8798980712891 C 745.2953491210938 144.8776702880859 745.2952880859375 144.8753662109375 745.2952270507813 144.8729705810547 C 745.294189453125 144.8391876220703 745.297119140625 144.8151550292969 745.2999877929688 144.8008422851563 C 745.3214721679688 144.7916564941406 745.3706665039063 144.7757415771484 745.4593505859375 144.7725372314453 C 745.7960205078125 144.7603912353516 746.1581420898438 144.7547302246094 746.5989379882813 144.7547302246094 C 746.9053955078125 144.7547302246094 747.2153930664063 144.7574615478516 747.5151977539063 144.7601318359375 C 747.8080444335938 144.7627258300781 748.11083984375 144.7654113769531 748.4033813476563 144.7654113769531 L 749.3968505859375 144.7654113769531 L 749.7844848632813 143.8507080078125 L 751.457275390625 139.9038696289063 L 751.8552856445313 138.9648742675781 L 751.1284790039063 138.2494506835938 C 750.9501342773438 138.0738983154297 750.7647705078125 137.8919982910156 750.5747680664063 137.7054901123047 C 750.1340942382813 137.2730255126953 749.678466796875 136.8258361816406 749.2228393554688 136.3723297119141 C 749.1040649414063 136.254150390625 749.0497436523438 136.15478515625 749.0278930664063 136.0952911376953 C 749.084228515625 136.1204681396484 749.1799926757813 136.1786346435547 749.2978515625 136.2963409423828 C 749.6868896484375 136.6848297119141 750.08056640625 137.0893402099609 750.4613037109375 137.4805145263672 C 750.6806030273438 137.7058715820313 750.8999633789063 137.9312438964844 751.1203002929688 138.1556396484375 L 751.80859375 138.8566284179688 L 752.3360595703125 138.6549835205078 L 753.1716918945313 138.6549835205078 C 751.2864990234375 140.0490570068359 750.0565795898438 142.268310546875 750.0411987304688 144.7630310058594 C 750.0361328125 145.5650329589844 750.1519775390625 146.3477325439453 750.380126953125 147.090087890625 Z M 764.704833984375 141.4821472167969 C 764.0238037109375 140.0744018554688 762.93115234375 138.9042510986328 761.5849609375 138.1327819824219 C 761.8123168945313 138.2300262451172 762.0431518554688 138.3261260986328 762.277099609375 138.4183197021484 C 762.51318359375 138.5111999511719 762.7717895507813 138.5581512451172 763.0465698242188 138.5581512451172 C 763.312255859375 138.5581512451172 763.987060546875 138.5067443847656 764.5132446289063 138.0304412841797 C 764.9175415039063 137.6643371582031 765.2894287109375 137.2840270996094 765.6490478515625 136.9162445068359 C 765.884521484375 136.6754302978516 766.10693359375 136.4479827880859 766.3345947265625 136.2276306152344 C 766.4276123046875 136.1376647949219 766.4972534179688 136.0982818603516 766.5355224609375 136.0815582275391 C 766.5410766601563 136.0871429443359 766.5453491210938 136.0919036865234 766.5485229492188 136.0957641601563 C 766.5388793945313 136.1307220458984 766.5022583007813 136.2098541259766 766.4032592773438 136.3105621337891 C 766.1937255859375 136.5237731933594 765.9803466796875 136.7320709228516 765.7544555664063 136.9525909423828 C 765.3887329101563 137.3095703125 765.0106201171875 137.6786956787109 764.6453247070313 138.0746154785156 C 764.1768798828125 138.5820922851563 763.872802734375 139.5089874267578 764.1986083984375 140.2981414794922 C 764.3626708984375 140.6951141357422 764.5314331054688 141.0875549316406 764.704833984375 141.4821472167969 Z M 753.4564819335938 138.4540710449219 L 753.5235595703125 138.2029724121094 C 753.5697631835938 138.1854858398438 753.6158447265625 138.1680450439453 753.661865234375 138.1506500244141 C 754.6119384765625 137.7912902832031 755.5093994140625 137.4518432617188 756.4083251953125 137.0746154785156 C 757.1962280273438 136.7436218261719 757.6477661132813 135.8576202392578 757.686767578125 135.1533508300781 C 757.7177734375 134.5972747802734 757.7139282226563 134.0536499023438 757.7102661132813 133.5279083251953 C 757.708251953125 133.2466125488281 757.7064208984375 132.9809112548828 757.7095336914063 132.7146301269531 C 757.7117919921875 132.5240325927734 757.7417602539063 132.4069366455078 757.7659912109375 132.3428497314453 C 757.7977905273438 132.3965606689453 757.8438720703125 132.5144805908203 757.8450927734375 132.7133636474609 C 757.845947265625 132.8485107421875 757.8470458984375 132.9834594726563 757.8480834960938 133.1184234619141 C 757.8533325195313 133.7804107666016 757.8582153320313 134.4056701660156 757.8399047851563 135.0346832275391 C 757.8192138671875 135.7570037841797 758.0571899414063 136.7136535644531 759.3082885742188 137.1727447509766 C 759.5524291992188 137.2623138427734 759.7952880859375 137.3595733642578 760.0405883789063 137.4623413085938 C 759.3460083007813 137.2488555908203 758.6094970703125 137.1321868896484 757.8471069335938 137.1282958984375 L 757.8076171875 137.1282043457031 C 756.1984252929688 137.1282043457031 754.69970703125 137.6177062988281 753.4564819335938 138.4540710449219 Z"/><path class="c" d="M 757.7197875976563 158.8195343017578 C 757.7120361328125 158.8195343017578 757.7045288085938 158.8194885253906 757.69677734375 158.8193969726563 C 756.9028930664063 158.8100280761719 756.28076171875 158.1427917480469 756.2609252929688 157.2384033203125 C 756.2411499023438 156.3309631347656 756.233154296875 155.4222717285156 756.2615356445313 154.515380859375 C 756.2734985351563 154.127197265625 756.0872802734375 154.0168151855469 755.7711791992188 153.8973388671875 C 754.7586669921875 153.5147399902344 753.7669677734375 153.0761108398438 752.7513427734375 152.7021789550781 C 752.6845703125 152.6776428222656 752.60107421875 152.6656646728516 752.5140380859375 152.6656646728516 C 752.3439331054688 152.6656646728516 752.1604614257813 152.7113647460938 752.0621948242188 152.7981872558594 C 751.43505859375 153.351806640625 750.865478515625 153.9698486328125 750.2572021484375 154.5458679199219 C 749.86865234375 154.9138031005859 749.4204711914063 155.0970306396484 748.9913940429688 155.0970306396484 C 748.587646484375 155.0970306396484 748.2008056640625 154.9348602294922 747.896240234375 154.6117858886719 C 747.3182983398438 153.9989318847656 747.3880004882813 153.0828247070313 748.0822143554688 152.3608093261719 C 748.72705078125 151.6899261474609 749.3833618164063 151.0300598144531 750.0339965820313 150.3647613525391 C 750.039794921875 150.3799591064453 750.045654296875 150.3951416015625 750.051513671875 150.4103698730469 C 750.0772094726563 150.3336791992188 750.0881958007813 150.3084716796875 750.0904541015625 150.3037109375 C 750.0906982421875 150.3031463623047 750.0908813476563 150.3028106689453 750.0908813476563 150.3028106689453 C 750.0908813476563 150.3028106689453 750.0906982421875 150.3030853271484 750.0904541015625 150.3037109375 C 750.08935546875 150.3057861328125 750.0863647460938 150.3110961914063 750.082275390625 150.3153381347656 C 750.066162109375 150.3318176269531 750.0501098632813 150.3482818603516 750.0339965820313 150.3647613525391 C 749.5386352539063 149.0763854980469 749.1026611328125 147.8993835449219 748.6195068359375 146.7421875 C 748.5514526367188 146.5791015625 748.2493286132813 146.4287414550781 748.049560546875 146.4203491210938 C 747.6839599609375 146.4052124023438 747.3179321289063 146.4016265869141 746.9517211914063 146.4016265869141 C 746.62353515625 146.4016265869141 746.2952270507813 146.4044952392578 745.9669799804688 146.4044952392578 C 745.800048828125 146.4044952392578 745.6332397460938 146.4037628173828 745.4663696289063 146.4015197753906 C 744.4535522460938 146.3880920410156 743.822265625 145.8185424804688 743.7958374023438 144.9169311523438 C 743.7686157226563 143.9881286621094 744.39990234375 143.3098449707031 745.4051513671875 143.2735137939453 C 745.8041381835938 143.2591094970703 746.20361328125 143.2547302246094 746.5989379882813 143.2547302246094 C 747.2158203125 143.2547302246094 747.8228149414063 143.2654113769531 748.4033813476563 143.2654113769531 C 748.9649047851563 141.9404296875 749.5025024414063 140.6719207763672 750.0762329101563 139.3184509277344 C 749.48779296875 138.7392272949219 748.822998046875 138.0907287597656 748.1646728515625 137.4355163574219 C 747.3850708007813 136.6595611572266 747.29931640625 135.658203125 747.9509887695313 135.0224304199219 C 748.2542724609375 134.7265167236328 748.6113891601563 134.579345703125 748.9846801757813 134.579345703125 C 749.4407958984375 134.579345703125 749.9210815429688 134.7988586425781 750.3577880859375 135.2349548339844 C 750.9752807617188 135.8516235351563 751.5791015625 136.4819183349609 752.1906127929688 137.1047210693359 C 752.185546875 137.1066436767578 752.1806030273438 137.1085357666016 752.175537109375 137.1104736328125 C 752.1951904296875 137.1208648681641 752.210205078125 137.1291656494141 752.2214965820313 137.1356506347656 C 752.2347412109375 137.1472015380859 752.2488403320313 137.1549835205078 752.2507934570313 137.1549835205078 C 752.25244140625 137.1549835205078 752.245361328125 137.1493530273438 752.2214965820313 137.1356506347656 C 752.2191772460938 137.1336212158203 752.2168579101563 137.1314544677734 752.2146606445313 137.1292114257813 C 752.2066650390625 137.1210479736328 752.1986083984375 137.1128845214844 752.1906127929688 137.1047210693359 C 753.4801025390625 136.6117706298828 754.6657104492188 136.1791687011719 755.827880859375 135.6914672851563 C 756.0088500976563 135.6154479980469 756.1769409179688 135.2895812988281 756.1890869140625 135.0703430175781 C 756.2330322265625 134.28125 756.2003173828125 133.4884033203125 756.2096557617188 132.6969299316406 C 756.2232666015625 131.5466461181641 756.8264770507813 130.8195190429688 757.746826171875 130.8195190429688 C 757.7640380859375 130.8195190429688 757.7813110351563 130.8197784423828 757.7987670898438 130.8202819824219 C 758.7003173828125 130.8465576171875 759.33837890625 131.6201171875 759.3450927734375 132.7040710449219 C 759.35009765625 133.4955139160156 759.3623046875 134.2875366210938 759.3392944335938 135.0783081054688 C 759.3284301757813 135.4571228027344 759.4346313476563 135.6213073730469 759.8250122070313 135.7645568847656 C 760.8424682617188 136.1377868652344 761.817626953125 136.6250457763672 762.8269653320313 137.0227355957031 C 762.8880615234375 137.0467681884766 762.9651489257813 137.0581512451172 763.0465698242188 137.0581512451172 C 763.2178344726563 137.0581512451172 763.407958984375 137.0076751708984 763.5066528320313 136.9183502197266 C 764.1268310546875 136.3567504882813 764.6895141601563 135.7322692871094 765.29150390625 135.1497192382813 C 765.6908569335938 134.7632904052734 766.1357421875 134.5703125 766.5609741210938 134.5703125 C 766.932861328125 134.5703125 767.2896728515625 134.7178802490234 767.5880126953125 135.0127563476563 C 768.2430419921875 135.66015625 768.2023315429688 136.6200103759766 767.4730834960938 137.3619995117188 C 766.902099609375 137.9428863525391 766.299560546875 138.4937286376953 765.7477416992188 139.091796875 C 765.6135864257813 139.2371215820313 765.5166625976563 139.5600280761719 765.5850830078125 139.7257690429688 C 766.06005859375 140.8746643066406 766.5833740234375 142.0036010742188 767.1463623046875 143.2624816894531 C 767.6122436523438 143.2624816894531 768.1378173828125 143.2471008300781 768.686767578125 143.2471008300781 C 769.0811767578125 143.2471008300781 769.4877319335938 143.2550354003906 769.8930053710938 143.2823181152344 C 770.3544311523438 143.3133544921875 770.8521728515625 143.4748840332031 771.2425537109375 143.7213745117188 C 771.75537109375 144.0450134277344 771.9058837890625 144.6236267089844 771.7490234375 145.2071838378906 C 771.579345703125 145.83837890625 771.1510620117188 146.2916870117188 770.4794311523438 146.3398742675781 C 769.836181640625 146.3860778808594 769.1895751953125 146.4030914306641 768.5433959960938 146.4030914306641 C 768.2590942382813 146.4030914306641 767.9750366210938 146.3998107910156 767.691162109375 146.3942565917969 C 767.6760864257813 146.3939666748047 767.6612548828125 146.3938140869141 767.646728515625 146.3938140869141 C 767.1803588867188 146.3938140869141 766.9913940429688 146.547119140625 766.8388061523438 147.0448303222656 C 766.5492553710938 147.9898681640625 766.1290893554688 148.9006652832031 765.6953125 149.7927551269531 C 765.5234985351563 150.1461181640625 765.4995727539063 150.3462524414063 765.7955322265625 150.6234741210938 C 766.3896484375 151.1799011230469 766.955322265625 151.7676086425781 767.5188598632813 152.3556213378906 C 768.2115478515625 153.0783386230469 768.298095703125 154.0261535644531 767.7426147460938 154.6097106933594 C 767.4317016601563 154.9363403320313 767.0386352539063 155.1015930175781 766.629638671875 155.1016235351563 C 766.1842041015625 155.1016693115234 765.7197875976563 154.9057922363281 765.3212890625 154.5090942382813 C 764.6463623046875 153.8372497558594 764.0150146484375 153.1216735839844 763.466796875 152.534912109375 C 762.0696411132813 153.0548706054688 760.8552856445313 153.4918212890625 759.6583251953125 153.9715270996094 C 759.5120239257813 154.0302124023438 759.3798217773438 154.3155822753906 759.3737182617188 154.5001525878906 C 759.3433837890625 155.4070434570313 759.369140625 156.3156127929688 759.3531494140625 157.2231750488281 C 759.336669921875 158.1586151123047 758.6464233398438 158.8194580078125 757.7197875976563 158.8195343017578 Z M 757.8075561523438 138.6281890869141 C 754.4082641601563 138.6281890869141 751.5618896484375 141.4152374267578 751.5411376953125 144.7723083496094 C 751.5191650390625 148.2855529785156 754.3463134765625 151.0365295410156 757.9947509765625 151.0523071289063 C 758.0020751953125 151.0523376464844 758.0098266601563 151.0523529052734 758.0171508789063 151.0523529052734 C 761.1708984375 151.0526123046875 763.9605712890625 148.1708984375 763.976318359375 144.8906860351563 C 763.9927978515625 141.4298553466797 761.2644653320313 138.645751953125 757.8394165039063 138.6282806396484 C 757.8289794921875 138.6282196044922 757.8179931640625 138.6281890869141 757.8075561523438 138.6281890869141 Z"/></g></svg>